<svg xmlns="http://www.w3.org/2000/svg" width="27.676" height="27.676" viewBox="0 0 27.676 27.676">
  <g id="Group_574" data-name="Group 574" transform="translate(-208.835 -126.555)">
    <circle id="Oval" cx="13.838" cy="13.838" r="13.838" transform="translate(208.835 126.555)" fill="#ff2d55" opacity="0.12"/>
    <path id="Icon" d="M6.308,11.7a.5.5,0,0,1-.2-.685L7.617,8.33l-2.359-1.9L4.23,8.979a.512.512,0,0,1-.425.316L.57,9.631c-.018,0-.037,0-.055,0A.5.5,0,0,1,.461,8.629l2.925-.3L4.561,5.416a.485.485,0,0,1,.11-.167l2.095-2.1L5.4,2.08,3.748,3.741a.523.523,0,0,1-.729.01.5.5,0,0,1-.011-.712L4.985,1.049a.526.526,0,0,1,.692-.042L9.928,4.339,11.577,2.75a.524.524,0,0,1,.729,0,.5.5,0,0,1-.006.713l-1.975,1.9a.523.523,0,0,1-.684.034L7.573,3.786,5.8,5.563,8.6,7.817a.5.5,0,0,1,.125.633L7.008,11.5a.517.517,0,0,1-.452.261A.524.524,0,0,1,6.308,11.7ZM7.874,1.233a1.26,1.26,0,0,1,2.519,0,1.26,1.26,0,0,1-2.519,0Z" transform="translate(216.059 134.858)" fill="#ff2d55"/>
  </g>
</svg>
