<svg xmlns="http://www.w3.org/2000/svg" width="65.29" height="29.002" viewBox="0 0 65.29 29.002"><path id="Main_Line" fill="none" stroke="#0d8e53" stroke-linecap="round" stroke-linejoin="round" stroke-miterlimit="10" stroke-width="2" d="M0,23.875l5.307-7.936a1.384,1.384,0,0,1,2.32.03l4.642,7.347a1.384,1.384,0,0,0,1.955.4l1.793-1.235A1.384,1.384,0,0,1,18,22.933l3.045,5.3a1.384,1.384,0,0,0,2.518-.266l4.144-12.922a1.384,1.384,0,0,1,2.589-.123l1.544,3.6a1.384,1.384,0,0,0,2.022.617l3.911-2.523a1.384,1.384,0,0,1,1.833.3L44.056,22.5a1.384,1.384,0,0,0,2.4-.444L52.37,3.383a2.076,2.076,0,0,1,3.946-.036l2,5.94a1.384,1.384,0,0,0,2.338.487L62.49,7.745" data-name="Main Line" transform="translate(1.387 -0.934)"/></svg>